<svg width="70" height="24" viewBox="0 0 70 24" fill="none" xmlns="http://www.w3.org/2000/svg">
<rect width="70" height="24" rx="4" fill="#ECF7ED"/>
<path d="M11.4281 11.7227L11.8617 7.46875H16.2328V8.4707H12.7816L12.5238 10.7969C12.9418 10.5508 13.4164 10.4277 13.9477 10.4277C14.725 10.4277 15.3422 10.6855 15.7992 11.2012C16.2563 11.7129 16.4848 12.4062 16.4848 13.2812C16.4848 14.1602 16.2465 14.8535 15.7699 15.3613C15.2973 15.8652 14.6352 16.1172 13.7836 16.1172C13.0297 16.1172 12.4145 15.9082 11.9379 15.4902C11.4613 15.0723 11.1898 14.4941 11.1234 13.7559H12.1488C12.2152 14.2441 12.3891 14.6133 12.6703 14.8633C12.9516 15.1094 13.3227 15.2324 13.7836 15.2324C14.2875 15.2324 14.682 15.0605 14.9672 14.7168C15.2563 14.373 15.4008 13.8984 15.4008 13.293C15.4008 12.7227 15.2445 12.2656 14.932 11.9219C14.6234 11.5742 14.2113 11.4004 13.6957 11.4004C13.223 11.4004 12.852 11.5039 12.5824 11.7109L12.2953 11.9453L11.4281 11.7227ZM23.418 12.3613C23.418 13.6309 23.2012 14.5742 22.7676 15.1914C22.334 15.8086 21.6563 16.1172 20.7344 16.1172C19.8242 16.1172 19.1504 15.8164 18.7129 15.2148C18.2754 14.6094 18.0488 13.707 18.0332 12.5078V11.0605C18.0332 9.80664 18.25 8.875 18.6836 8.26562C19.1172 7.65625 19.7969 7.35156 20.7227 7.35156C21.6406 7.35156 22.3164 7.64648 22.75 8.23633C23.1836 8.82227 23.4063 9.72852 23.418 10.9551V12.3613ZM22.334 10.8789C22.334 9.96094 22.2051 9.29297 21.9473 8.875C21.6895 8.45312 21.2813 8.24219 20.7227 8.24219C20.168 8.24219 19.7637 8.45117 19.5098 8.86914C19.2559 9.28711 19.125 9.92969 19.1172 10.7969V12.5312C19.1172 13.4531 19.25 14.1348 19.5156 14.5762C19.7852 15.0137 20.1914 15.2324 20.7344 15.2324C21.2695 15.2324 21.666 15.0254 21.9238 14.6113C22.1855 14.1973 22.3223 13.5449 22.334 12.6543V10.8789ZM25.1129 9.10938C25.1129 8.59766 25.275 8.17578 25.5992 7.84375C25.9273 7.51172 26.3473 7.3457 26.859 7.3457C27.3785 7.3457 27.7984 7.51367 28.1188 7.84961C28.443 8.18164 28.6051 8.61328 28.6051 9.14453V9.56055C28.6051 10.0762 28.441 10.498 28.1129 10.8262C27.7887 11.1504 27.3746 11.3125 26.8707 11.3125C26.3629 11.3125 25.943 11.1504 25.6109 10.8262C25.2789 10.498 25.1129 10.0625 25.1129 9.51953V9.10938ZM25.9215 9.56055C25.9215 9.86523 26.0074 10.1172 26.1793 10.3164C26.3512 10.5117 26.5816 10.6094 26.8707 10.6094C27.148 10.6094 27.3707 10.5137 27.5387 10.3223C27.7105 10.1309 27.7965 9.86914 27.7965 9.53711V9.10938C27.7965 8.80469 27.7125 8.55273 27.5445 8.35352C27.3766 8.1543 27.148 8.05469 26.859 8.05469C26.5699 8.05469 26.3414 8.1543 26.1734 8.35352C26.0055 8.55273 25.9215 8.8125 25.9215 9.13281V9.56055ZM29.2672 13.9082C29.2672 13.3965 29.4293 12.9766 29.7535 12.6484C30.0816 12.3164 30.5016 12.1504 31.0133 12.1504C31.525 12.1504 31.9449 12.3145 32.273 12.6426C32.6012 12.9707 32.7652 13.4062 32.7652 13.9492V14.3652C32.7652 14.877 32.6012 15.2988 32.273 15.6309C31.9488 15.959 31.5328 16.123 31.025 16.123C30.5172 16.123 30.0973 15.9609 29.7652 15.6367C29.4332 15.3086 29.2672 14.873 29.2672 14.3301V13.9082ZM30.0758 14.3652C30.0758 14.6738 30.1617 14.9277 30.3336 15.127C30.5055 15.3223 30.7359 15.4199 31.025 15.4199C31.3063 15.4199 31.5309 15.3242 31.6988 15.1328C31.8668 14.9375 31.9508 14.6738 31.9508 14.3418V13.9082C31.9508 13.5996 31.8648 13.3477 31.693 13.1523C31.525 12.957 31.2984 12.8594 31.0133 12.8594C30.7359 12.8594 30.5094 12.957 30.3336 13.1523C30.1617 13.3438 30.0758 13.6035 30.0758 13.9316V14.3652ZM27.1168 15.3555L26.5016 14.9688L30.6676 8.30078L31.2828 8.6875L27.1168 15.3555ZM44.616 12.0098C44.616 12.8457 44.4754 13.5762 44.1941 14.2012C43.9129 14.8223 43.5145 15.2969 42.9988 15.625C42.4832 15.9531 41.8816 16.1172 41.1941 16.1172C40.5223 16.1172 39.9266 15.9531 39.407 15.625C38.8875 15.293 38.4832 14.8223 38.1941 14.2129C37.909 13.5996 37.7625 12.8906 37.7547 12.0859V11.4707C37.7547 10.6504 37.8973 9.92578 38.1824 9.29688C38.4676 8.66797 38.8699 8.1875 39.3895 7.85547C39.9129 7.51953 40.5105 7.35156 41.1824 7.35156C41.866 7.35156 42.4676 7.51758 42.9871 7.84961C43.5105 8.17773 43.9129 8.65625 44.1941 9.28516C44.4754 9.91016 44.616 10.6387 44.616 11.4707V12.0098ZM43.4969 11.459C43.4969 10.4473 43.2938 9.67188 42.8875 9.13281C42.4813 8.58984 41.9129 8.31836 41.1824 8.31836C40.4715 8.31836 39.9109 8.58984 39.5008 9.13281C39.0945 9.67188 38.8855 10.4219 38.8738 11.3828V12.0098C38.8738 12.9902 39.0789 13.7617 39.4891 14.3242C39.9031 14.8828 40.4715 15.1621 41.1941 15.1621C41.9207 15.1621 42.4832 14.8984 42.8816 14.3711C43.2801 13.8398 43.4852 13.0801 43.4969 12.0918V11.459ZM51.4086 12.2324H47.8285V16H46.7035V7.46875H51.9887V8.39453H47.8285V11.3125H51.4086V12.2324ZM58.4414 12.2324H54.8613V16H53.7363V7.46875H59.0215V8.39453H54.8613V11.3125H58.4414V12.2324Z" fill="#37833B"/>
</svg>
