<svg width="39" height="39" viewBox="0 0 39 39" fill="none" xmlns="http://www.w3.org/2000/svg">
<path d="M4.64286 9.28571C2.07868 9.28571 0 11.3644 0 13.9286C0 16.4928 2.07868 18.5714 4.64286 18.5714H13.9286C16.4928 18.5714 18.5714 16.4928 18.5714 13.9286C18.5714 11.3644 16.4928 9.28571 13.9286 9.28571H4.64286Z" fill="#8C2CEF"/>
<path d="M39 25.0714C39 27.6356 36.9213 29.7143 34.3571 29.7143H25.0714C22.5072 29.7143 20.4286 27.6356 20.4286 25.0714C20.4286 22.5073 22.5072 20.4286 25.0714 20.4286H34.3571C36.9213 20.4286 39 22.5072 39 25.0714Z" fill="#8C2CEF"/>
<path d="M13.9286 39C11.3644 39 9.28571 36.9213 9.28571 34.3571V25.0714C9.28571 22.5072 11.3644 20.4286 13.9286 20.4286C16.4928 20.4286 18.5714 22.5072 18.5714 25.0714V34.3571C18.5714 36.9213 16.4928 39 13.9286 39Z" fill="#8C2CEF"/>
<path d="M25.0714 0C27.6356 0 29.7143 2.07868 29.7143 4.64286V13.9286C29.7143 16.4928 27.6356 18.5714 25.0714 18.5714C22.5072 18.5714 20.4286 16.4928 20.4286 13.9286V4.64286C20.4286 2.07868 22.5072 0 25.0714 0Z" fill="#8C2CEF"/>
</svg>
