<svg width="66" height="32" viewBox="0 0 66 32" fill="none" xmlns="http://www.w3.org/2000/svg">
<rect x="0.5" y="0.5" width="65" height="31" rx="3.5" fill="#F8F9FD" stroke="#9DC2FF"/>
<path d="M33.6719 13.4929C33.6188 13.0223 33.4001 12.6577 33.0156 12.3991C32.6312 12.1373 32.1473 12.0064 31.5639 12.0064C31.1463 12.0064 30.785 12.0727 30.4801 12.2053C30.1752 12.3345 29.9382 12.5135 29.7692 12.7422C29.6035 12.9676 29.5206 13.2244 29.5206 13.5128C29.5206 13.7547 29.5769 13.9635 29.6896 14.1392C29.8056 14.3149 29.9564 14.4624 30.142 14.5817C30.331 14.6977 30.5331 14.7955 30.7486 14.875C30.964 14.9512 31.1712 15.0142 31.37 15.0639L32.3643 15.3224C32.6892 15.402 33.0223 15.5097 33.3636 15.6456C33.705 15.7815 34.0215 15.9605 34.3132 16.1825C34.6049 16.4046 34.8402 16.6797 35.0192 17.0078C35.2015 17.3359 35.2926 17.7287 35.2926 18.1861C35.2926 18.7628 35.1435 19.2749 34.8452 19.7223C34.5502 20.1697 34.121 20.5227 33.5575 20.7812C32.9974 21.0398 32.3196 21.169 31.5241 21.169C30.7618 21.169 30.1023 21.0481 29.5455 20.8061C28.9886 20.5642 28.5528 20.2211 28.2379 19.777C27.9231 19.3295 27.7491 18.7992 27.7159 18.1861H29.2571C29.2869 18.554 29.4063 18.8606 29.6151 19.1058C29.8272 19.3478 30.0973 19.5284 30.4254 19.6477C30.7569 19.7637 31.1198 19.8217 31.5142 19.8217C31.9484 19.8217 32.3345 19.7538 32.6726 19.6179C33.014 19.4787 33.2824 19.2865 33.478 19.0412C33.6735 18.7926 33.7713 18.5026 33.7713 18.1712C33.7713 17.8696 33.6851 17.6226 33.5128 17.4304C33.3438 17.2382 33.1134 17.0791 32.8217 16.9531C32.5334 16.8272 32.2069 16.7161 31.8423 16.62L30.6392 16.2919C29.8239 16.0698 29.1776 15.7434 28.7003 15.3125C28.2263 14.8816 27.9893 14.3116 27.9893 13.6023C27.9893 13.0156 28.1484 12.5036 28.4666 12.0661C28.7848 11.6286 29.2157 11.2888 29.7592 11.0469C30.3028 10.8016 30.916 10.679 31.5987 10.679C32.2881 10.679 32.8963 10.8 33.4233 11.0419C33.9536 11.2839 34.3712 11.617 34.6761 12.0412C34.9811 12.4621 35.1402 12.946 35.1534 13.4929H33.6719ZM39.4834 21.169C38.9995 21.169 38.562 21.0795 38.1709 20.9006C37.7798 20.7183 37.4699 20.4548 37.2412 20.1101C37.0158 19.7654 36.9031 19.3428 36.9031 18.8423C36.9031 18.4115 36.986 18.0568 37.1517 17.7784C37.3174 17.5 37.5411 17.2796 37.8228 17.1172C38.1046 16.9548 38.4194 16.8321 38.7674 16.7493C39.1155 16.6664 39.4701 16.6035 39.8314 16.5604C40.2888 16.5073 40.66 16.4643 40.945 16.4311C41.23 16.3946 41.4372 16.3366 41.5665 16.2571C41.6957 16.1776 41.7603 16.0483 41.7603 15.8693V15.8345C41.7603 15.4003 41.6377 15.0639 41.3924 14.8253C41.1505 14.5866 40.7892 14.4673 40.3086 14.4673C39.8082 14.4673 39.4138 14.5784 39.1254 14.8004C38.8404 15.0192 38.6432 15.2628 38.5338 15.5312L37.1368 15.2131C37.3025 14.7491 37.5444 14.3745 37.8626 14.0895C38.1841 13.8011 38.5537 13.5923 38.9713 13.4631C39.3889 13.3305 39.8281 13.2642 40.2888 13.2642C40.5937 13.2642 40.9168 13.3007 41.2582 13.3736C41.6029 13.4432 41.9244 13.5724 42.2227 13.7614C42.5243 13.9503 42.7712 14.2204 42.9635 14.5717C43.1557 14.9197 43.2518 15.3722 43.2518 15.929V21H41.8001V19.956H41.7405C41.6443 20.1482 41.5002 20.3371 41.3079 20.5227C41.1157 20.7083 40.8688 20.8625 40.5672 20.9851C40.2656 21.1077 39.9043 21.169 39.4834 21.169ZM39.8065 19.9759C40.2175 19.9759 40.5688 19.8946 40.8605 19.7322C41.1555 19.5698 41.3792 19.3577 41.5317 19.0959C41.6874 18.8307 41.7653 18.5473 41.7653 18.2457V17.2614C41.7123 17.3144 41.6095 17.3641 41.4571 17.4105C41.3079 17.4536 41.1372 17.4917 40.945 17.5249C40.7528 17.5547 40.5655 17.5829 40.3832 17.6094C40.2009 17.6326 40.0485 17.6525 39.9258 17.669C39.6375 17.7055 39.374 17.7668 39.1353 17.853C38.9 17.9392 38.7111 18.0634 38.5686 18.2259C38.4294 18.3849 38.3598 18.5971 38.3598 18.8622C38.3598 19.2301 38.4957 19.5085 38.7674 19.6974C39.0392 19.883 39.3856 19.9759 39.8065 19.9759ZM51.743 13.3636L48.9738 21H47.3829L44.6088 13.3636H46.2046L48.1386 19.2401H48.2181L50.1471 13.3636H51.743ZM56.4234 21.1541C55.6711 21.1541 55.0231 20.9934 54.4795 20.6719C53.9393 20.3471 53.5217 19.8913 53.2267 19.3047C52.935 18.7147 52.7892 18.0237 52.7892 17.2315C52.7892 16.4493 52.935 15.7599 53.2267 15.1634C53.5217 14.5668 53.9327 14.1011 54.4597 13.7663C54.99 13.4316 55.6098 13.2642 56.319 13.2642C56.7499 13.2642 57.1675 13.3355 57.5719 13.478C57.9762 13.6205 58.3392 13.8442 58.6607 14.1491C58.9821 14.4541 59.2357 14.8501 59.4213 15.3374C59.6069 15.8213 59.6997 16.4096 59.6997 17.1023V17.6293H53.6294V16.5156H58.243C58.243 16.1245 58.1635 15.7782 58.0044 15.4766C57.8453 15.1716 57.6216 14.9313 57.3332 14.7557C57.0482 14.58 56.7134 14.4922 56.329 14.4922C55.9114 14.4922 55.5468 14.5949 55.2352 14.8004C54.927 15.0026 54.6884 15.2678 54.5193 15.5959C54.3536 15.9207 54.2707 16.2737 54.2707 16.6548V17.5249C54.2707 18.0353 54.3602 18.4695 54.5392 18.8274C54.7215 19.1854 54.975 19.4588 55.2999 19.6477C55.6247 19.8333 56.0042 19.9261 56.4384 19.9261C56.7201 19.9261 56.9769 19.8864 57.2089 19.8068C57.441 19.724 57.6415 19.6013 57.8105 19.4389C57.9795 19.2765 58.1088 19.076 58.1983 18.8374L59.6053 19.0909C59.4926 19.5052 59.2904 19.8681 58.9987 20.1797C58.7104 20.4879 58.3474 20.7282 57.9099 20.9006C57.4758 21.0696 56.9803 21.1541 56.4234 21.1541Z" fill="#2264D1"/>
<path d="M13.07 20.585L13 20.655L12.923 20.585C9.598 17.568 7.4 15.573 7.4 13.55C7.4 12.15 8.45 11.1 9.85 11.1C10.928 11.1 11.978 11.8 12.349 12.752H13.651C14.022 11.8 15.072 11.1 16.15 11.1C17.55 11.1 18.6 12.15 18.6 13.55C18.6 15.573 16.402 17.568 13.07 20.585ZM16.15 9.69995C14.932 9.69995 13.763 10.267 13 11.156C12.237 10.267 11.068 9.69995 9.85 9.69995C7.694 9.69995 6 11.387 6 13.55C6 16.189 8.38 18.352 11.985 21.621L13 22.545L14.015 21.621C17.62 18.352 20 16.189 20 13.55C20 11.387 18.306 9.69995 16.15 9.69995Z" fill="#2979FF"/>
</svg>
